<svg xmlns="http://www.w3.org/2000/svg" viewBox="-2 -2 33 33" shape-rendering="crispEdges"><rect x="-2" y="-2" width="33" height="33" fill="#fff"/><path d="M0 0h1v1h-1zM1 0h1v1h-1zM2 0h1v1h-1zM3 0h1v1h-1zM4 0h1v1h-1zM5 0h1v1h-1zM6 0h1v1h-1zM9 0h1v1h-1zM13 0h1v1h-1zM16 0h1v1h-1zM19 0h1v1h-1zM22 0h1v1h-1zM23 0h1v1h-1zM24 0h1v1h-1zM25 0h1v1h-1zM26 0h1v1h-1zM27 0h1v1h-1zM28 0h1v1h-1zM0 1h1v1h-1zM6 1h1v1h-1zM11 1h1v1h-1zM12 1h1v1h-1zM13 1h1v1h-1zM14 1h1v1h-1zM15 1h1v1h-1zM17 1h1v1h-1zM18 1h1v1h-1zM20 1h1v1h-1zM22 1h1v1h-1zM28 1h1v1h-1zM0 2h1v1h-1zM2 2h1v1h-1zM3 2h1v1h-1zM4 2h1v1h-1zM6 2h1v1h-1zM9 2h1v1h-1zM10 2h1v1h-1zM13 2h1v1h-1zM16 2h1v1h-1zM17 2h1v1h-1zM18 2h1v1h-1zM20 2h1v1h-1zM22 2h1v1h-1zM24 2h1v1h-1zM25 2h1v1h-1zM26 2h1v1h-1zM28 2h1v1h-1zM0 3h1v1h-1zM2 3h1v1h-1zM3 3h1v1h-1zM4 3h1v1h-1zM6 3h1v1h-1zM9 3h1v1h-1zM11 3h1v1h-1zM13 3h1v1h-1zM14 3h1v1h-1zM15 3h1v1h-1zM18 3h1v1h-1zM19 3h1v1h-1zM22 3h1v1h-1zM24 3h1v1h-1zM25 3h1v1h-1zM26 3h1v1h-1zM28 3h1v1h-1zM0 4h1v1h-1zM2 4h1v1h-1zM3 4h1v1h-1zM4 4h1v1h-1zM6 4h1v1h-1zM9 4h1v1h-1zM13 4h1v1h-1zM14 4h1v1h-1zM16 4h1v1h-1zM17 4h1v1h-1zM18 4h1v1h-1zM22 4h1v1h-1zM24 4h1v1h-1zM25 4h1v1h-1zM26 4h1v1h-1zM28 4h1v1h-1zM0 5h1v1h-1zM6 5h1v1h-1zM8 5h1v1h-1zM9 5h1v1h-1zM13 5h1v1h-1zM14 5h1v1h-1zM17 5h1v1h-1zM18 5h1v1h-1zM19 5h1v1h-1zM20 5h1v1h-1zM22 5h1v1h-1zM28 5h1v1h-1zM0 6h1v1h-1zM1 6h1v1h-1zM2 6h1v1h-1zM3 6h1v1h-1zM4 6h1v1h-1zM5 6h1v1h-1zM6 6h1v1h-1zM8 6h1v1h-1zM10 6h1v1h-1zM12 6h1v1h-1zM14 6h1v1h-1zM16 6h1v1h-1zM18 6h1v1h-1zM20 6h1v1h-1zM22 6h1v1h-1zM23 6h1v1h-1zM24 6h1v1h-1zM25 6h1v1h-1zM26 6h1v1h-1zM27 6h1v1h-1zM28 6h1v1h-1zM10 7h1v1h-1zM12 7h1v1h-1zM14 7h1v1h-1zM17 7h1v1h-1zM18 7h1v1h-1zM20 7h1v1h-1zM0 8h1v1h-1zM3 8h1v1h-1zM5 8h1v1h-1zM6 8h1v1h-1zM8 8h1v1h-1zM15 8h1v1h-1zM19 8h1v1h-1zM21 8h1v1h-1zM23 8h1v1h-1zM0 9h1v1h-1zM3 9h1v1h-1zM4 9h1v1h-1zM5 9h1v1h-1zM8 9h1v1h-1zM9 9h1v1h-1zM14 9h1v1h-1zM15 9h1v1h-1zM20 9h1v1h-1zM21 9h1v1h-1zM22 9h1v1h-1zM25 9h1v1h-1zM28 9h1v1h-1zM0 10h1v1h-1zM1 10h1v1h-1zM4 10h1v1h-1zM6 10h1v1h-1zM9 10h1v1h-1zM10 10h1v1h-1zM12 10h1v1h-1zM16 10h1v1h-1zM19 10h1v1h-1zM21 10h1v1h-1zM24 10h1v1h-1zM25 10h1v1h-1zM26 10h1v1h-1zM27 10h1v1h-1zM0 11h1v1h-1zM2 11h1v1h-1zM5 11h1v1h-1zM7 11h1v1h-1zM9 11h1v1h-1zM14 11h1v1h-1zM15 11h1v1h-1zM24 11h1v1h-1zM26 11h1v1h-1zM27 11h1v1h-1zM2 12h1v1h-1zM6 12h1v1h-1zM7 12h1v1h-1zM10 12h1v1h-1zM11 12h1v1h-1zM12 12h1v1h-1zM16 12h1v1h-1zM17 12h1v1h-1zM19 12h1v1h-1zM20 12h1v1h-1zM21 12h1v1h-1zM22 12h1v1h-1zM25 12h1v1h-1zM27 12h1v1h-1zM28 12h1v1h-1zM1 13h1v1h-1zM2 13h1v1h-1zM3 13h1v1h-1zM4 13h1v1h-1zM7 13h1v1h-1zM9 13h1v1h-1zM12 13h1v1h-1zM15 13h1v1h-1zM17 13h1v1h-1zM18 13h1v1h-1zM19 13h1v1h-1zM0 14h1v1h-1zM6 14h1v1h-1zM7 14h1v1h-1zM12 14h1v1h-1zM15 14h1v1h-1zM16 14h1v1h-1zM17 14h1v1h-1zM20 14h1v1h-1zM21 14h1v1h-1zM22 14h1v1h-1zM23 14h1v1h-1zM24 14h1v1h-1zM25 14h1v1h-1zM26 14h1v1h-1zM27 14h1v1h-1zM28 14h1v1h-1zM3 15h1v1h-1zM5 15h1v1h-1zM7 15h1v1h-1zM10 15h1v1h-1zM13 15h1v1h-1zM14 15h1v1h-1zM16 15h1v1h-1zM17 15h1v1h-1zM19 15h1v1h-1zM20 15h1v1h-1zM21 15h1v1h-1zM25 15h1v1h-1zM27 15h1v1h-1zM1 16h1v1h-1zM2 16h1v1h-1zM3 16h1v1h-1zM5 16h1v1h-1zM6 16h1v1h-1zM8 16h1v1h-1zM12 16h1v1h-1zM13 16h1v1h-1zM14 16h1v1h-1zM15 16h1v1h-1zM16 16h1v1h-1zM17 16h1v1h-1zM19 16h1v1h-1zM21 16h1v1h-1zM23 16h1v1h-1zM27 16h1v1h-1zM1 17h1v1h-1zM3 17h1v1h-1zM4 17h1v1h-1zM7 17h1v1h-1zM10 17h1v1h-1zM15 17h1v1h-1zM21 17h1v1h-1zM22 17h1v1h-1zM23 17h1v1h-1zM25 17h1v1h-1zM28 17h1v1h-1zM0 18h1v1h-1zM3 18h1v1h-1zM6 18h1v1h-1zM7 18h1v1h-1zM8 18h1v1h-1zM9 18h1v1h-1zM10 18h1v1h-1zM12 18h1v1h-1zM13 18h1v1h-1zM20 18h1v1h-1zM23 18h1v1h-1zM27 18h1v1h-1zM28 18h1v1h-1zM4 19h1v1h-1zM8 19h1v1h-1zM12 19h1v1h-1zM13 19h1v1h-1zM15 19h1v1h-1zM16 19h1v1h-1zM17 19h1v1h-1zM18 19h1v1h-1zM22 19h1v1h-1zM23 19h1v1h-1zM27 19h1v1h-1zM28 19h1v1h-1zM0 20h1v1h-1zM2 20h1v1h-1zM4 20h1v1h-1zM6 20h1v1h-1zM9 20h1v1h-1zM12 20h1v1h-1zM14 20h1v1h-1zM16 20h1v1h-1zM19 20h1v1h-1zM20 20h1v1h-1zM21 20h1v1h-1zM22 20h1v1h-1zM23 20h1v1h-1zM24 20h1v1h-1zM26 20h1v1h-1zM8 21h1v1h-1zM9 21h1v1h-1zM11 21h1v1h-1zM13 21h1v1h-1zM15 21h1v1h-1zM16 21h1v1h-1zM17 21h1v1h-1zM18 21h1v1h-1zM19 21h1v1h-1zM20 21h1v1h-1zM24 21h1v1h-1zM26 21h1v1h-1zM27 21h1v1h-1zM28 21h1v1h-1zM0 22h1v1h-1zM1 22h1v1h-1zM2 22h1v1h-1zM3 22h1v1h-1zM4 22h1v1h-1zM5 22h1v1h-1zM6 22h1v1h-1zM13 22h1v1h-1zM14 22h1v1h-1zM15 22h1v1h-1zM17 22h1v1h-1zM18 22h1v1h-1zM20 22h1v1h-1zM22 22h1v1h-1zM24 22h1v1h-1zM27 22h1v1h-1zM0 23h1v1h-1zM6 23h1v1h-1zM8 23h1v1h-1zM11 23h1v1h-1zM12 23h1v1h-1zM13 23h1v1h-1zM16 23h1v1h-1zM18 23h1v1h-1zM20 23h1v1h-1zM24 23h1v1h-1zM25 23h1v1h-1zM26 23h1v1h-1zM27 23h1v1h-1zM0 24h1v1h-1zM2 24h1v1h-1zM3 24h1v1h-1zM4 24h1v1h-1zM6 24h1v1h-1zM10 24h1v1h-1zM11 24h1v1h-1zM12 24h1v1h-1zM14 24h1v1h-1zM15 24h1v1h-1zM18 24h1v1h-1zM20 24h1v1h-1zM21 24h1v1h-1zM22 24h1v1h-1zM23 24h1v1h-1zM24 24h1v1h-1zM27 24h1v1h-1zM0 25h1v1h-1zM2 25h1v1h-1zM3 25h1v1h-1zM4 25h1v1h-1zM6 25h1v1h-1zM8 25h1v1h-1zM11 25h1v1h-1zM12 25h1v1h-1zM14 25h1v1h-1zM15 25h1v1h-1zM16 25h1v1h-1zM20 25h1v1h-1zM22 25h1v1h-1zM24 25h1v1h-1zM25 25h1v1h-1zM26 25h1v1h-1zM28 25h1v1h-1zM0 26h1v1h-1zM2 26h1v1h-1zM3 26h1v1h-1zM4 26h1v1h-1zM6 26h1v1h-1zM9 26h1v1h-1zM10 26h1v1h-1zM11 26h1v1h-1zM12 26h1v1h-1zM13 26h1v1h-1zM19 26h1v1h-1zM20 26h1v1h-1zM24 26h1v1h-1zM25 26h1v1h-1zM26 26h1v1h-1zM28 26h1v1h-1zM0 27h1v1h-1zM6 27h1v1h-1zM9 27h1v1h-1zM11 27h1v1h-1zM14 27h1v1h-1zM15 27h1v1h-1zM19 27h1v1h-1zM20 27h1v1h-1zM21 27h1v1h-1zM27 27h1v1h-1zM0 28h1v1h-1zM1 28h1v1h-1zM2 28h1v1h-1zM3 28h1v1h-1zM4 28h1v1h-1zM5 28h1v1h-1zM6 28h1v1h-1zM8 28h1v1h-1zM12 28h1v1h-1zM13 28h1v1h-1zM14 28h1v1h-1zM19 28h1v1h-1zM20 28h1v1h-1zM21 28h1v1h-1zM22 28h1v1h-1zM24 28h1v1h-1zM25 28h1v1h-1zM27 28h1v1h-1z" fill="#1A1D21"/></svg>